<svg width="20" height="20" viewBox="0 0 20 20" fill="none" xmlns="http://www.w3.org/2000/svg">
<g clip-path="url(#clip0_240_799)">
<path fill-rule="evenodd" clip-rule="evenodd" d="M0.833374 10C0.833374 4.93754 4.93754 0.833374 10 0.833374C15.0625 0.833374 19.1667 4.93754 19.1667 10C19.1667 15.0625 15.0625 19.1667 10 19.1667C4.93754 19.1667 0.833374 15.0625 0.833374 10ZM10 5.83337C10.0001 5.66858 10.049 5.5075 10.1405 5.37049C10.2321 5.23348 10.3622 5.1267 10.5145 5.06364C10.6667 5.00058 10.8343 4.98408 10.9959 5.01622C11.1575 5.04836 11.306 5.1277 11.4225 5.24421L14.7559 8.57754C14.9121 8.73381 14.9999 8.94574 14.9999 9.16671C14.9999 9.38768 14.9121 9.5996 14.7559 9.75587L11.4225 13.0892C11.306 13.2057 11.1575 13.2851 10.9959 13.3172C10.8343 13.3493 10.6667 13.3328 10.5145 13.2698C10.3622 13.2067 10.2321 13.0999 10.1405 12.9629C10.049 12.8259 10.0001 12.6648 10 12.5V11.7C8.64087 11.81 7.81254 12.1867 7.32921 12.545C7.10501 12.7038 6.91394 12.9048 6.76671 13.1367C6.72457 13.2027 6.69176 13.2742 6.66921 13.3492C6.6687 13.3515 6.66785 13.3538 6.66671 13.3559V13.3542C6.66534 13.4636 6.64243 13.5717 6.59929 13.6723C6.55614 13.7729 6.49361 13.864 6.41526 13.9404C6.33692 14.0168 6.24428 14.0771 6.14265 14.1177C6.04103 14.1583 5.93239 14.1785 5.82296 14.1771C5.71352 14.1758 5.60543 14.1528 5.50485 14.1097C5.40427 14.0666 5.31317 14.004 5.23675 13.9257C5.16034 13.8473 5.1001 13.7547 5.05949 13.6531C5.01887 13.5514 4.99867 13.4428 5.00004 13.3334C5.00004 11.0784 5.94754 9.40421 7.14421 8.30337C8.02921 7.48921 9.07504 6.96754 10 6.76421V5.83337ZM10.8334 10C11.0032 10 11.169 10.0519 11.3086 10.1487C11.4481 10.2455 11.5548 10.3826 11.6142 10.5417L12.9884 9.16671L11.6134 7.79171C11.554 7.95068 11.4475 8.08772 11.3081 8.18452C11.1687 8.28131 11.0031 8.33325 10.8334 8.33337C10.2467 8.33337 9.19087 8.68504 8.27254 9.53004C7.92775 9.84618 7.62975 10.2098 7.38754 10.61C8.25254 10.2417 9.38087 10 10.8334 10Z" fill="#9A9A9A"/>
</g>
<defs>
<clipPath id="clip0_240_799">
<rect width="20" height="20" fill="white"/>
</clipPath>
</defs>
</svg>
