<svg width="20" height="20" viewBox="0 0 20 20" fill="none" xmlns="http://www.w3.org/2000/svg">
<path d="M13.7454 2.99146C12.1331 2.99146 10.7554 4.14069 9.99845 4.93299C9.24153 4.14069 7.86691 2.99146 6.25538 2.99146C3.47768 2.99146 1.53845 4.92761 1.53845 7.69915C1.53845 10.753 3.94691 12.7268 6.27691 14.6361C7.37691 15.5384 8.51538 16.4707 9.38845 17.5045C9.53538 17.6776 9.75076 17.7776 9.97691 17.7776H10.0215C10.2485 17.7776 10.4631 17.6768 10.6092 17.5045C11.4838 16.4707 12.6215 15.5376 13.7223 14.6361C16.0515 12.7276 18.4615 10.7538 18.4615 7.69915C18.4615 4.92761 16.5223 2.99146 13.7454 2.99146Z" fill="#252525"/>
</svg>
