<svg width="24" height="24" viewBox="0 0 24 24" fill="none" xmlns="http://www.w3.org/2000/svg">
<g clip-path="url(#clip0_240_931)">
<path fill-rule="evenodd" clip-rule="evenodd" d="M19.495 3.133C19.7164 2.99961 19.981 2.95718 20.233 3.01461C20.4851 3.07203 20.7051 3.22485 20.847 3.441L21.837 4.951C21.9663 5.14835 22.0217 5.38508 21.9933 5.61931C21.9649 5.85355 21.8547 6.07022 21.682 6.231L21.679 6.235L21.665 6.248L21.608 6.301L21.383 6.516C20.138 7.7236 18.9307 8.96953 17.763 10.252C15.566 12.668 12.957 15.83 11.201 18.898C10.711 19.754 9.51397 19.938 8.80397 19.199L2.31897 12.461C2.22604 12.3644 2.15347 12.2501 2.10559 12.1249C2.05771 11.9997 2.03548 11.8662 2.04024 11.7322C2.045 11.5982 2.07664 11.4666 2.13329 11.3451C2.18993 11.2236 2.27042 11.1148 2.36997 11.025L4.32997 9.257C4.50222 9.10171 4.72308 9.01111 4.95475 9.00071C5.18643 8.99032 5.41451 9.06076 5.59997 9.2L8.90897 11.681C14.077 6.584 17.009 4.628 19.495 3.133Z" fill="#218985"/>
</g>
<defs>
<clipPath id="clip0_240_931">
<rect width="24" height="24" fill="white"/>
</clipPath>
</defs>
</svg>
