<svg width="44" height="44" viewBox="0 0 44 44" fill="none" xmlns="http://www.w3.org/2000/svg">
<path d="M23.241 40.6154H4.51282C2.03077 40.6154 0 38.5846 0 36.1026V4.51282C0 2.03077 2.03077 0 4.51282 0H36.1026C38.5846 0 40.6154 2.03077 40.6154 4.51282V23.241C39.2615 22.7897 37.6821 22.5641 36.1026 22.5641C33.6205 22.5641 31.1385 23.241 29.1077 24.5949L25.9487 20.3077L18.0513 30.4615L12.4103 23.6923L4.51282 33.8462H22.7897C22.5641 34.5231 22.5641 35.4256 22.5641 36.1026C22.5641 37.6821 22.7897 39.2615 23.241 40.6154ZM39.2615 36.1026L44 40.841L40.841 44L36.1026 39.2615L31.3641 44L28.2051 40.841L32.9436 36.1026L28.2051 31.3641L31.3641 28.2051L36.1026 32.9436L40.841 28.2051L44 31.3641L39.2615 36.1026Z" fill="black" fill-opacity="0.63"/>
</svg>
