<svg width="24" height="24" viewBox="0 0 24 24" fill="none" xmlns="http://www.w3.org/2000/svg">
<g clip-path="url(#clip0_243_1064)">
<path d="M12 0.47998C5.64596 0.47998 0.47876 5.64838 0.47876 12C0.47876 18.3516 5.64596 23.52 12 23.52C18.3516 23.52 23.52 18.3516 23.52 12C23.52 5.64838 18.3516 0.47998 12 0.47998ZM21.8256 12C21.8256 14.2476 21.0624 16.32 19.7904 17.976C19.4304 17.6952 19.0476 16.9356 19.4076 16.1484C19.7712 15.3564 19.866 13.5228 19.782 12.8088C19.7028 12.096 19.332 10.3788 18.3252 10.362C17.3196 10.3476 16.6296 10.0152 16.032 8.82238C14.7924 6.34078 18.3588 5.86438 17.1192 4.49158C16.7724 4.10518 14.9796 6.07798 14.7168 3.44878C14.7 3.26038 14.8788 2.97838 15.12 2.68558C19.0128 3.99358 21.8256 7.67398 21.8256 12ZM10.65 2.27158C10.4148 2.72998 9.79436 2.91598 9.41756 3.26038C8.59676 4.00318 8.24396 3.89998 7.80236 4.61278C7.35716 5.32558 5.92196 6.35158 5.92196 6.86758C5.92196 7.38358 6.64676 7.99078 7.00916 7.87318C7.37156 7.75318 8.32796 7.76038 8.88956 7.95718C9.45236 8.15638 13.5864 8.35558 12.2688 11.85C11.8512 12.9612 10.0212 12.774 9.53396 14.6136C9.46076 14.8836 9.20756 16.0368 9.19196 16.4136C9.16196 16.9968 9.60476 19.1952 9.04196 19.1952C8.47676 19.1952 6.95636 17.2284 6.95636 16.872C6.95636 16.5156 6.56276 15.2664 6.56276 14.196C6.56276 13.1268 4.74116 13.1436 4.74116 11.7216C4.74116 10.44 5.72876 9.80158 5.50676 9.18598C5.28956 8.57398 3.55436 8.55358 2.83076 8.47798C3.46345 6.84098 4.52179 5.40262 5.89641 4.31153C7.27104 3.22043 8.91208 2.5162 10.65 2.27158ZM8.90876 21.324C9.49916 21.012 9.55916 20.6088 10.0944 20.5884C10.7064 20.5608 11.2044 20.3496 11.8944 20.1972C12.5064 20.064 13.602 19.4424 14.5656 19.3632C15.3792 19.2972 16.9836 19.4052 17.4156 20.19C16.1768 21.0126 14.767 21.5422 13.293 21.7387C11.8191 21.9352 10.3197 21.7934 8.90876 21.324Z" fill="black"/>
</g>
<defs>
<clipPath id="clip0_243_1064">
<rect width="24" height="24" fill="white"/>
</clipPath>
</defs>
</svg>
