<svg width="24" height="24" viewBox="0 0 24 24" fill="none" xmlns="http://www.w3.org/2000/svg">
<path fill-rule="evenodd" clip-rule="evenodd" d="M8.962 18.4689C6.019 16.2139 2 12.4889 2 8.9669C2 3.0829 7.5 0.885903 12 5.4299C16.5 0.885903 22 3.0829 22 8.9659C22 12.4889 17.98 16.2139 15.038 18.4689C13.706 19.4889 13.04 19.9999 12 19.9999C10.96 19.9999 10.294 19.4899 8.962 18.4689ZM16.5 6.2499C16.6989 6.2499 16.8897 6.32892 17.0303 6.46957C17.171 6.61023 17.25 6.80099 17.25 6.9999V8.2499H18.5C18.6989 8.2499 18.8897 8.32892 19.0303 8.46957C19.171 8.61023 19.25 8.80099 19.25 8.9999C19.25 9.19882 19.171 9.38958 19.0303 9.53023C18.8897 9.67089 18.6989 9.7499 18.5 9.7499H17.25V10.9999C17.25 11.1988 17.171 11.3896 17.0303 11.5302C16.8897 11.6709 16.6989 11.7499 16.5 11.7499C16.3011 11.7499 16.1103 11.6709 15.9697 11.5302C15.829 11.3896 15.75 11.1988 15.75 10.9999V9.7499H14.5C14.3011 9.7499 14.1103 9.67089 13.9697 9.53023C13.829 9.38958 13.75 9.19882 13.75 8.9999C13.75 8.80099 13.829 8.61023 13.9697 8.46957C14.1103 8.32892 14.3011 8.2499 14.5 8.2499H15.75V6.9999C15.75 6.80099 15.829 6.61023 15.9697 6.46957C16.1103 6.32892 16.3011 6.2499 16.5 6.2499Z" fill="black"/>
</svg>
