<svg width="24" height="24" viewBox="0 0 24 24" fill="none" xmlns="http://www.w3.org/2000/svg">
<path d="M5.91982 10.5599H7.19998V18.2399H9.11998V11.5199H11.04V18.2399H12.96V11.5199H14.88V18.2399H16.8V10.5599H18.0797C18.4329 10.5599 18.72 10.2066 18.72 9.88836C18.72 9.69588 18.6139 9.47892 18.4536 9.37428L18.4545 9.34932L18.4445 9.33156L18.5088 9.31572L12.48 6.2106V5.30244C13.44 5.81076 14.3765 4.93524 15.84 5.4618V3.45588C14.3755 2.9298 13.44 3.80484 12.48 3.29652V3.16788C12.48 3.009 12.1771 2.87988 12 2.87988C11.8229 2.87988 11.52 3.009 11.52 3.16788V6.2106L5.49166 9.30948L5.62174 9.31956L5.75998 9.32484V9.3258C5.27998 9.43044 5.3875 9.6954 5.3875 9.88788C5.38702 10.2066 5.56654 10.5599 5.91982 10.5599ZM6.71998 18.7199L5.27998 20.1599H18.72L17.28 18.7199H6.71998ZM17.28 11.0399V18.2399H17.7048L17.8925 18.5053L19.1721 19.7048L19.6248 20.1599H23.52V11.0399H17.28ZM20.16 16.7999H18.72V15.3599H20.16V16.7999ZM20.16 13.9199H18.72V12.4799H20.16V13.9199ZM22.08 16.7999H21.12V15.3599H22.08V16.7999ZM22.08 13.9199H21.12V12.4799H22.08V13.9199ZM6.2947 18.2399H6.71998V11.0399H0.47998V20.1599H4.3747L4.82686 19.7528L6.10702 18.5048L6.2947 18.2399ZM2.87998 16.7999H1.91998V15.3599H2.87998V16.7999ZM2.87998 13.9199H1.91998V12.4799H2.87998V13.9199ZM5.27998 16.7999H3.83998V15.3599H5.27998V16.7999ZM5.27998 13.9199H3.83998V12.4799H5.27998V13.9199Z" fill="black"/>
</svg>
