<svg width="18" height="19" viewBox="0 0 18 19" fill="none" xmlns="http://www.w3.org/2000/svg">
<g clip-path="url(#clip0_85_47)">
<path d="M17.9914 9.38323C17.9914 8.6285 17.9302 8.07774 17.7976 7.50659H9.1793V10.9131H14.2381C14.1361 11.7597 13.5854 13.0346 12.3614 13.8912L12.3443 14.0053L15.0692 16.1163L15.258 16.1351C16.9919 14.5338 17.9914 12.1778 17.9914 9.38323Z" fill="#4285F4"/>
<path d="M9.1793 18.3587C11.6577 18.3587 13.7383 17.5427 15.258 16.1353L12.3614 13.8914C11.5863 14.432 10.546 14.8093 9.1793 14.8093C6.7519 14.8093 4.69167 13.2081 3.95726 10.9949L3.84961 11.004L1.01616 13.1968L0.979103 13.2999C2.48857 16.2984 5.58914 18.3587 9.1793 18.3587Z" fill="#34A853"/>
<path d="M3.95726 10.9948C3.76348 10.4237 3.65133 9.81165 3.65133 9.17933C3.65133 8.54694 3.76348 7.93501 3.94706 7.36386L3.94193 7.24222L1.07297 5.01416L0.979102 5.05881C0.356977 6.30313 0 7.70045 0 9.17933C0 10.6582 0.356977 12.0555 0.979102 13.2998L3.95726 10.9948Z" fill="#FBBC05"/>
<path d="M9.1793 3.5493C10.9029 3.5493 12.0656 4.29384 12.7286 4.91604L15.3192 2.38662C13.7282 0.907734 11.6577 0 9.1793 0C5.58914 0 2.48857 2.06023 0.979103 5.05877L3.94706 7.36383C4.69167 5.1506 6.7519 3.5493 9.1793 3.5493Z" fill="#EB4335"/>
</g>
<defs>
<clipPath id="clip0_85_47">
<rect width="18" height="18.4219" fill="white"/>
</clipPath>
</defs>
</svg>
