<svg width="24" height="24" viewBox="0 0 24 24" fill="none" xmlns="http://www.w3.org/2000/svg">
<path d="M7.95004 10.635C8.47361 10.0914 9.10152 9.65911 9.79615 9.36399C10.4908 9.06887 11.2378 8.917 11.9925 8.91748C13.4625 8.91748 14.925 9.48748 16.035 10.635C18.2625 12.9225 18.2625 16.6425 16.035 18.93C15.5119 19.4742 14.8841 19.9069 14.1894 20.2021C13.4947 20.4972 12.7474 20.6487 11.9925 20.6475C10.47 20.6475 9.03004 20.04 7.95004 18.93C6.87026 17.8203 6.26963 16.3308 6.27754 14.7825C6.27754 13.215 6.87004 11.745 7.95004 10.635ZM13.0725 13.035L12.45 11.745C12.2625 11.355 11.7225 11.355 11.52 11.745L10.8975 13.035C10.8225 13.1925 10.68 13.2975 10.515 13.32L9.12754 13.53C8.71504 13.59 8.55004 14.115 8.85004 14.415L9.81004 15.375C9.95254 15.5175 10.005 15.7275 9.93754 15.9225L9.49504 17.205C9.34504 17.6325 9.77254 18.0375 10.1775 17.8575L11.7825 17.1375C11.91 17.0775 12.06 17.0775 12.1875 17.1375L13.7925 17.8575C14.205 18.0375 14.625 17.6325 14.475 17.205L14.0325 15.9225C14.0018 15.8283 13.9975 15.7275 14.0199 15.6309C14.0424 15.5344 14.0909 15.4459 14.16 15.375L15.12 14.415C15.4275 14.115 15.255 13.59 14.8425 13.53L13.455 13.32C13.373 13.3068 13.2954 13.274 13.2288 13.2244C13.1622 13.1748 13.1086 13.1098 13.0725 13.035Z" fill="black"/>
<path d="M4.28099 1.50757L4.28324 1.51132H8.95949C9.46199 1.51132 9.91349 1.76257 10.161 2.19757L12 5.22157L13.8352 2.20507C14.0902 1.77007 14.5477 1.50757 15.0502 1.50757H16.5802L16.578 1.51132H19.9987C21.0787 1.51132 21.7552 2.67757 21.2152 3.63007C20.2303 5.38017 18.8354 6.86515 17.1502 7.95757C16.8855 8.16307 16.593 8.32507 16.2825 8.43982C18.24 9.83332 19.5225 12.1546 19.5225 14.7826C19.5225 19.0448 16.1505 22.5001 11.9925 22.5001C7.83299 22.5001 4.46249 19.0448 4.46249 14.7826C4.46249 12.1493 5.74874 9.82357 7.71299 8.43082C7.40082 8.31598 7.10815 8.15383 6.84524 7.95007C5.16524 6.85507 3.77024 5.37007 2.78024 3.62257C2.24774 2.67757 2.93024 1.50757 4.01774 1.50757H4.28024H4.28099ZM9.47849 7.50607C9.91469 7.34751 10.365 7.23073 10.8232 7.15732L10.9312 6.98032L7.90274 2.25007H4.71524C5.91875 4.211 7.469 5.9366 9.29024 7.34257C9.35249 7.39882 9.41474 7.45282 9.47849 7.50607ZM19.3065 2.25007H16.104L12.975 7.13032C13.5025 7.20061 14.0208 7.32811 14.5207 7.51057C14.5867 7.45624 14.6512 7.40022 14.7142 7.34257C16.5414 5.93788 18.0975 4.21224 19.3065 2.25007ZM7.31999 19.5826C7.92572 20.2123 8.65259 20.7131 9.45686 21.0546C10.2611 21.3962 11.1262 21.5715 12 21.5701C13.7625 21.5701 15.4275 20.8651 16.6875 19.5826C19.2675 16.9351 19.2675 12.6301 16.6875 9.98257C16.0798 9.35452 15.352 8.85511 14.5473 8.51404C13.7427 8.17297 12.8777 7.99721 12.0037 7.99721C11.1298 7.99721 10.2648 8.17297 9.46016 8.51404C8.65553 8.85511 7.92771 9.35452 7.31999 9.98257C6.06696 11.2652 5.36916 12.9895 5.37749 14.7826C5.37749 16.5976 6.06749 18.3001 7.31999 19.5826Z" fill="black"/>
</svg>
