<svg width="24" height="24" viewBox="0 0 24 24" fill="none" xmlns="http://www.w3.org/2000/svg">
<path d="M5.99998 3.6001C5.36346 3.6001 4.75301 3.85295 4.30292 4.30304C3.85283 4.75313 3.59998 5.36358 3.59998 6.0001V15.6001C5.27158 15.6001 6.31798 15.1177 7.03438 14.4481C7.77118 13.7617 8.21878 12.8233 8.58478 11.7985C8.71078 11.4469 8.81998 11.1025 8.93038 10.7581L9.08878 10.2709C9.25198 9.7753 9.42718 9.2797 9.64438 8.8441C9.86278 8.4085 10.1412 7.9945 10.53 7.6885C10.9493 7.36172 11.4684 7.18925 12 7.2001C12.5784 7.2001 13.0668 7.3729 13.47 7.6885C13.8588 7.9945 14.1372 8.4085 14.3556 8.8441C14.5728 9.2797 14.7492 9.7753 14.9112 10.2709C14.9652 10.4341 15.0168 10.5961 15.0684 10.7581C15.1788 11.1037 15.2892 11.4469 15.4152 11.7985C15.7812 12.8233 16.2288 13.7617 16.9656 14.4493C17.682 15.1177 18.7296 15.6001 20.4 15.6001V6.0001C20.4 5.36358 20.1471 4.75313 19.697 4.30304C19.2469 3.85295 18.6365 3.6001 18 3.6001H5.99998ZM20.4 16.8001C18.4716 16.8001 17.118 16.2325 16.1472 15.3265C15.1956 14.4385 14.6688 13.2769 14.2848 12.2017C14.1528 11.8321 14.0328 11.4553 13.9188 11.1013L13.7712 10.6453C13.638 10.2127 13.4744 9.79002 13.2816 9.3805C13.1064 9.0289 12.9252 8.7865 12.7296 8.6329C12.5214 8.47176 12.263 8.38931 12 8.4001C11.737 8.38942 11.4786 8.47185 11.2704 8.6329C11.0748 8.7865 10.8936 9.0289 10.7184 9.3805C10.5255 9.79001 10.3619 10.2127 10.2288 10.6453L10.0812 11.1013C9.96838 11.4553 9.84718 11.8321 9.71518 12.2017C9.33118 13.2769 8.80318 14.4385 7.85278 15.3265C6.88198 16.2325 5.52838 16.8001 3.59998 16.8001V18.0001C3.59998 18.6366 3.85283 19.2471 4.30292 19.6972C4.75301 20.1472 5.36346 20.4001 5.99998 20.4001H18C18.6365 20.4001 19.2469 20.1472 19.697 19.6972C20.1471 19.2471 20.4 18.6366 20.4 18.0001V16.8001Z" fill="black"/>
</svg>
